<svg width="15" height="11" viewBox="0 0 15 11" fill="none" xmlns="http://www.w3.org/2000/svg">
<path d="M13.0568 0.419449C13.1421 0.332406 13.2439 0.263258 13.3563 0.216052C13.4687 0.168846 13.5893 0.144531 13.7112 0.144531C13.8331 0.144531 13.9537 0.168846 14.0661 0.216052C14.1784 0.263258 14.2803 0.332406 14.3656 0.419449C14.7231 0.780699 14.7281 1.36445 14.3781 1.73195L6.98682 10.4694C6.9029 10.5616 6.80106 10.6357 6.68754 10.6871C6.57401 10.7385 6.45119 10.7663 6.32657 10.7686C6.20196 10.771 6.07818 10.7479 5.9628 10.7007C5.84743 10.6536 5.74288 10.5834 5.65557 10.4944L1.15807 5.93695C0.984612 5.76006 0.887451 5.52219 0.887451 5.27445C0.887451 5.0267 0.984612 4.78884 1.15807 4.61195C1.24337 4.52491 1.34519 4.45576 1.45755 4.40855C1.56991 4.36135 1.69057 4.33703 1.81244 4.33703C1.93432 4.33703 2.05497 4.36135 2.16733 4.40855C2.27969 4.45576 2.38151 4.52491 2.46682 4.61195L6.28182 8.4782L13.0318 0.446949C13.0396 0.437288 13.0479 0.428105 13.0568 0.419449Z" fill="white"/>
</svg>
