<svg width="24" height="25" viewBox="0 0 24 25" fill="none" xmlns="http://www.w3.org/2000/svg">
<path d="M20.8472 15.7129L16.4306 13.7338L16.4184 13.7282C16.1892 13.6301 15.939 13.5907 15.6907 13.6137C15.4424 13.6366 15.2037 13.721 14.9963 13.8594C14.9718 13.8756 14.9484 13.8931 14.9259 13.9119L12.6441 15.8572C11.1984 15.155 9.70595 13.6738 9.00376 12.2469L10.9519 9.93036C10.9706 9.90692 10.9884 9.88348 11.0053 9.85817C11.1407 9.65127 11.2229 9.4141 11.2445 9.16777C11.2661 8.92144 11.2264 8.6736 11.1291 8.44629V8.43504L9.14438 4.01098C9.0157 3.71404 8.79444 3.46668 8.51362 3.30583C8.2328 3.14498 7.9075 3.07926 7.58626 3.11848C6.31592 3.28564 5.14986 3.90952 4.30588 4.87357C3.4619 5.83763 2.99771 7.07594 3.00001 8.35723C3.00001 15.801 9.05626 21.8572 16.5 21.8572C17.7813 21.8595 19.0196 21.3953 19.9837 20.5514C20.9477 19.7074 21.5716 18.5413 21.7388 17.271C21.7781 16.9499 21.7125 16.6246 21.5518 16.3438C21.3911 16.063 21.144 15.8417 20.8472 15.7129ZM16.5 20.3572C13.3185 20.3538 10.2682 19.0884 8.01856 16.8387C5.76888 14.589 4.50348 11.5388 4.50001 8.35723C4.49648 7.44175 4.82631 6.55629 5.42789 5.86621C6.02947 5.17612 6.86167 4.72861 7.76907 4.60723C7.7687 4.61097 7.7687 4.61474 7.76907 4.61848L9.73782 9.02473L7.80001 11.3441C7.78034 11.3667 7.76247 11.3909 7.74657 11.4163C7.60549 11.6328 7.52273 11.882 7.5063 12.1399C7.48988 12.3978 7.54035 12.6555 7.65282 12.8882C8.5022 14.6254 10.2525 16.3625 12.0084 17.211C12.2428 17.3224 12.502 17.3711 12.7608 17.3524C13.0196 17.3337 13.2692 17.2481 13.485 17.1041C13.5091 17.0879 13.5322 17.0704 13.5544 17.0516L15.8334 15.1072L20.2397 17.0807H20.25C20.1301 17.9894 19.6833 18.8232 18.9931 19.4263C18.3028 20.0294 17.4166 20.3603 16.5 20.3572Z" fill="#E30016"/>
</svg>
