<svg width="23" height="23" viewBox="0 0 23 23" fill="none" xmlns="http://www.w3.org/2000/svg">
<path d="M2 5.51707L3.28 4.24707L20 20.9671L18.73 22.2471L15.65 19.1671C14.5 19.5471 13.28 19.7471 12 19.7471C7 19.7471 2.73 16.6371 1 12.2471C1.69 10.4871 2.79 8.93707 4.19 7.70707L2 5.51707ZM12 9.24707C12.7956 9.24707 13.5587 9.56314 14.1213 10.1257C14.6839 10.6884 15 11.4514 15 12.2471C15.0005 12.5876 14.943 12.9258 14.83 13.2471L11 9.41707C11.3213 9.30405 11.6594 9.24656 12 9.24707ZM12 4.74707C17 4.74707 21.27 7.85707 23 12.2471C22.1839 14.3203 20.7969 16.1198 19 17.4371L17.58 16.0071C18.9629 15.0505 20.0782 13.7561 20.82 12.2471C20.0116 10.597 18.7564 9.20684 17.1973 8.23458C15.6381 7.26231 13.8375 6.74695 12 6.74707C10.91 6.74707 9.84 6.92707 8.84 7.24707L7.3 5.71707C8.74 5.09707 10.33 4.74707 12 4.74707ZM3.18 12.2471C3.98844 13.8971 5.24357 15.2873 6.80273 16.2596C8.36189 17.2318 10.1625 17.7472 12 17.7471C12.69 17.7471 13.37 17.6771 14 17.5371L11.72 15.2471C11.0242 15.1725 10.3748 14.8619 9.87997 14.3671C9.38512 13.8722 9.07458 13.2229 9 12.5271L5.6 9.11707C4.61 9.96707 3.78 11.0271 3.18 12.2471Z" fill="#969EB4"/>
</svg>
