<svg width="20" height="26" viewBox="0 0 20 26" fill="none" xmlns="http://www.w3.org/2000/svg">
<path d="M19 7.76923H13.7742C13.4662 7.76923 13.1708 7.63956 12.953 7.40875C12.7353 7.17793 12.6129 6.86488 12.6129 6.53846V1M19 7.76923V23.7692C19 24.0957 18.8777 24.4087 18.6599 24.6395C18.4421 24.8703 18.1467 25 17.8387 25H2.16129C1.8533 25 1.55792 24.8703 1.34013 24.6395C1.12235 24.4087 1 24.0957 1 23.7692V2.23077C1 1.90435 1.12235 1.5913 1.34013 1.36048C1.55792 1.12967 1.8533 1 2.16129 1H12.6129M19 7.76923L12.6129 1" stroke="#5C6378" stroke-linecap="round" stroke-linejoin="round"/>
<path d="M16.75 13.0175H13.8432V17.5M13.8432 15.2585H15.7399M3.25065 17.4915V13.0085H5.20298C5.71939 13.0084 6.21473 13.1667 6.58001 13.4488C6.94529 13.7309 7.1506 14.1135 7.15078 14.5125C7.15095 14.9115 6.94597 15.2942 6.58093 15.5765C6.21588 15.8587 5.72069 16.0174 5.20427 16.0175H3.25M8.54659 17.5V13H9.53408C10.3064 13 11.0471 13.2371 11.5932 13.659C12.1393 14.081 12.4461 14.6533 12.4461 15.25C12.4461 15.8467 12.1393 16.419 11.5932 16.841C11.0471 17.2629 10.3064 17.5 9.53408 17.5H8.54659Z" stroke="#5C6378" stroke-width="0.7" stroke-linecap="round" stroke-linejoin="round"/>
</svg>
