<svg width="15" height="20" viewBox="0 0 15 20" fill="none" xmlns="http://www.w3.org/2000/svg">
<path d="M14.5 6.07692H10.5806C10.3497 6.07692 10.1281 5.97967 9.96478 5.80656C9.80144 5.63345 9.70968 5.39866 9.70968 5.15385V1M14.5 6.07692V18.0769C14.5 18.3217 14.4082 18.5565 14.2449 18.7296C14.0816 18.9027 13.86 19 13.629 19H1.87097C1.63997 19 1.41844 18.9027 1.2551 18.7296C1.09176 18.5565 1 18.3217 1 18.0769V1.92308C1 1.67826 1.09176 1.44347 1.2551 1.27036C1.41844 1.09725 1.63997 1 1.87097 1H9.70968M14.5 6.07692L9.70968 1" stroke="#2E6597" stroke-linecap="round" stroke-linejoin="round"/>
<path d="M12.3594 9.42458H10.3744V12.5877M10.3744 11.006H11.6696M3.14105 12.5817V9.41823H4.47424C4.82689 9.41814 5.16514 9.5299 5.41458 9.72894C5.66403 9.92797 5.80423 10.198 5.80434 10.4795C5.80446 10.7611 5.66448 11.0312 5.41521 11.2304C5.16593 11.4295 4.82778 11.5415 4.47513 11.5416H3.14061M6.75751 12.5877V9.41223H7.43184C7.95923 9.41223 8.46501 9.57951 8.83793 9.87727C9.21085 10.175 9.42036 10.5789 9.42036 11C9.42036 11.4211 9.21085 11.8249 8.83793 12.1227C8.46501 12.4204 7.95923 12.5877 7.43184 12.5877H6.75751Z" stroke="#2E6597" stroke-width="0.7" stroke-linecap="round" stroke-linejoin="round"/>
</svg>
